<svg width="190" height="39" viewBox="0 0 190 39" fill="none" xmlns="http://www.w3.org/2000/svg">
<path fill-rule="evenodd" clip-rule="evenodd" d="M64.386 7.74206C64.386 7.28761 64.2881 6.89457 64.0923 6.56295C63.8966 6.21904 63.6274 5.94882 63.2848 5.7523C62.9423 5.55578 62.5263 5.4698 62.0613 5.45752C61.6087 5.45752 61.1927 5.55578 60.8623 5.7523C60.5198 5.94882 60.2506 6.21904 60.0671 6.56295C59.8836 6.90685 59.7734 7.29989 59.7734 7.74206C59.7734 8.2088 59.8713 8.60184 60.0671 8.95803C60.2506 9.30194 60.5198 9.57216 60.8623 9.76868C61.2049 9.9652 61.6087 10.0635 62.0613 10.0635C62.5263 10.0635 62.9423 9.9652 63.2848 9.76868C63.6274 9.57216 63.8966 9.30194 64.0923 8.95803C64.2758 8.60184 64.386 8.2088 64.386 7.74206Z" fill="#C5C6C6"/>
<path fill-rule="evenodd" clip-rule="evenodd" d="M136.705 34.002C135.873 34.2845 134.442 34.4319 133.108 34.4319C130.086 34.4319 128.03 33.1422 128.03 29.2364V19.091H125.363V15.6151H128.03L129.107 10.2722H132.631V15.6151H136.693V19.091H132.631V27.8362C132.631 30.2804 133.353 30.7717 135.225 30.7717H136.705V34.002Z" fill="#F66201"/>
<path fill-rule="evenodd" clip-rule="evenodd" d="M146.249 7.74206C146.249 7.28761 146.151 6.89457 145.955 6.56295C145.759 6.21904 145.49 5.94882 145.148 5.7523C144.805 5.55578 144.389 5.4698 143.924 5.45752C143.459 5.45752 143.055 5.55578 142.725 5.7523C142.383 5.94882 142.113 6.21904 141.93 6.56295C141.746 6.90685 141.648 7.29989 141.648 7.74206C141.648 8.2088 141.746 8.60184 141.93 8.95803C142.113 9.30194 142.395 9.57216 142.725 9.76868C143.068 9.9652 143.471 10.0635 143.924 10.0635C144.389 10.0635 144.805 9.9652 145.148 9.76868C145.49 9.57216 145.759 9.30194 145.955 8.95803C146.151 8.60184 146.249 8.2088 146.249 7.74206Z" fill="#F66201"/>
<path fill-rule="evenodd" clip-rule="evenodd" d="M153.542 7.74206C153.53 7.28761 153.444 6.89457 153.249 6.56295C153.053 6.21904 152.784 5.94882 152.441 5.7523C152.098 5.55578 151.707 5.4698 151.254 5.45752C150.789 5.45752 150.373 5.55578 150.031 5.7523C149.688 5.94882 149.419 6.21904 149.223 6.56295C149.04 6.90685 148.93 7.29989 148.93 7.74206C148.93 8.2088 149.028 8.60184 149.223 8.95803C149.419 9.30194 149.688 9.57216 150.031 9.76868C150.373 9.9652 150.789 10.0635 151.254 10.0635C151.707 10.0635 152.098 9.9652 152.441 9.76868C152.784 9.57216 153.053 9.30194 153.249 8.95803C153.444 8.60184 153.542 8.2088 153.542 7.74206Z" fill="#F66201"/>
<path fill-rule="evenodd" clip-rule="evenodd" d="M62.7474 34.0388L62.3192 31.7051C60.3372 33.6826 58.6488 34.5424 56.0183 34.5424C51.3446 34.5424 49.4727 31.6069 49.4727 27.222V15.6028H54.0729V26.2886C54.0729 29.0521 54.8315 30.7717 57.0949 30.7717C58.9669 30.7717 60.0435 29.875 61.6341 28.1923V15.6028H66.2344V34.0388H62.7474Z" fill="#F66201"/>
<path fill-rule="evenodd" clip-rule="evenodd" d="M79.0199 34.3581C76.4628 34.3581 73.6978 33.8546 71.3242 33.1422V7.14014H75.9367V17.4697C77.4172 16.0695 79.1056 15.0992 81.6259 15.0992C86.7401 15.0992 89.0402 19.1156 89.0402 24.0654C89.0158 30.0593 85.9693 34.3581 79.0199 34.3581ZM80.6349 18.8331C78.9465 18.8331 77.5028 19.6928 75.9245 21.5598V30.0224C76.8544 30.4155 78.0411 30.7348 79.338 30.7348C82.5435 30.7348 84.1952 28.5485 84.1952 24.6058C84.1952 21.3387 83.3021 18.8331 80.6349 18.8331Z" fill="#F66201"/>
<path fill-rule="evenodd" clip-rule="evenodd" d="M108.994 25.8219H96.7593C96.7593 29.0522 98.0929 30.956 101.898 30.956C104.064 30.956 106.07 30.6735 107.979 30.1699L108.444 33.5108C106.278 34.1617 103.868 34.5548 101.176 34.5548C94.9486 34.5548 92 31.4719 92 25.0113C92 18.9191 95.2422 15.1116 101.103 15.1116C106.608 15.1116 109.055 18.4156 109.055 23.6848C109.068 24.1392 109.031 25.1095 108.994 25.8219ZM104.492 22.8495C104.602 20.1228 103.415 18.3664 100.858 18.3664C98.0929 18.3664 96.8328 20.6264 96.7593 22.8495H104.492Z" fill="#F66201"/>
<path fill-rule="evenodd" clip-rule="evenodd" d="M123.712 19.693C123.321 19.5825 122.342 19.4474 121.804 19.4474C120.617 19.4474 119.54 20.4545 117.815 22.6408V34.0513H113.215V15.6029H116.812L117.24 18.6859C119.039 16.2171 120.152 15.0994 122.061 15.0994C123.003 15.0994 123.578 15.1731 124.251 15.3573L123.712 19.693Z" fill="#F66201"/>
<path fill-rule="evenodd" clip-rule="evenodd" d="M152.318 34.0388L151.89 31.7051C149.907 33.6826 148.219 34.5424 145.589 34.5424C140.915 34.5424 139.043 31.6069 139.043 27.222V15.6028H143.655V26.2886C143.655 29.0521 144.414 30.7717 146.677 30.7717C148.549 30.7717 149.626 29.875 151.217 28.1923V15.6028H155.817V34.0388H152.318Z" fill="#F66201"/>
<path fill-rule="evenodd" clip-rule="evenodd" d="M171.393 19.693C171.001 19.5825 170.022 19.4474 169.484 19.4474C168.297 19.4474 167.22 20.4545 165.483 22.6408V34.0513H160.883V15.6029H164.48L164.908 18.6859C166.707 16.2171 167.82 15.0994 169.729 15.0994C170.671 15.0994 171.246 15.1731 171.931 15.3573L171.393 19.693Z" fill="#F66201"/>
<path fill-rule="evenodd" clip-rule="evenodd" d="M189.927 25.8219H177.692C177.692 29.0522 179.026 30.956 182.843 30.956C184.997 30.956 187.015 30.6735 188.924 30.1699L189.389 33.5108C187.223 34.1617 184.825 34.5548 182.121 34.5548C175.894 34.5548 172.945 31.4719 172.945 25.0113C172.945 18.9191 176.188 15.1116 182.048 15.1116C187.554 15.1116 190.001 18.4156 190.001 23.6848C190.001 24.1392 189.964 25.1095 189.927 25.8219ZM185.425 22.8495C185.535 20.1228 184.348 18.3664 181.791 18.3664C179.026 18.3664 177.766 20.6264 177.692 22.8495H185.425Z" fill="#F66201"/>
<path fill-rule="evenodd" clip-rule="evenodd" d="M57.0808 7.74206C57.0808 7.28761 56.9829 6.89457 56.7871 6.56295C56.5914 6.21904 56.3222 5.94882 55.9796 5.7523C55.6371 5.55578 55.2211 5.4698 54.7561 5.45752C54.3035 5.45752 53.8875 5.55578 53.5571 5.7523C53.2146 5.94882 52.9454 6.21904 52.7619 6.56295C52.5783 6.90685 52.4805 7.29989 52.4805 7.74206C52.4805 8.2088 52.5783 8.60184 52.7619 8.95803C52.9454 9.30194 53.2146 9.57216 53.5571 9.76868C53.8997 9.9652 54.3035 10.0635 54.7561 10.0635C55.2211 10.0635 55.6371 9.9652 55.9796 9.76868C56.3222 9.57216 56.5914 9.30194 56.7871 8.95803C56.9829 8.60184 57.0808 8.2088 57.0808 7.74206Z" fill="#F66201"/>
<path fill-rule="evenodd" clip-rule="evenodd" d="M29.4991 19.5C34.9253 19.5 39.3322 23.871 39.3322 29.25C39.3322 34.629 34.9253 39 29.4991 39C24.0729 39 19.666 34.6389 19.666 29.25C19.666 23.8611 24.0729 19.5 29.4991 19.5Z" fill="#C5C6C6"/>
<path fill-rule="evenodd" clip-rule="evenodd" d="M9.83308 0C15.2593 0 19.6662 4.37103 19.6662 9.75C19.6662 15.129 15.2593 19.5 9.83308 19.5C4.4069 19.5 0 15.129 0 9.75C0 4.37103 4.4069 0 9.83308 0Z" fill="#F66201"/>
<path fill-rule="evenodd" clip-rule="evenodd" d="M29.4991 0C34.9253 0 39.3322 4.37103 39.3322 9.75C39.3322 15.129 34.9253 19.5 29.4991 19.5C24.0729 19.5 19.666 15.129 19.666 9.75C19.666 4.37103 24.0729 0 29.4991 0Z" fill="#F66201"/>
<path fill-rule="evenodd" clip-rule="evenodd" d="M9.83308 19.5C15.2593 19.5 19.6662 23.871 19.6662 29.25C19.6662 34.629 15.2593 39 9.83308 39C4.4069 39 0 34.629 0 29.25C0 23.871 4.4069 19.5 9.83308 19.5Z" fill="#F66201"/>
</svg>
