<svg width="22" height="23" viewBox="0 0 22 23" fill="none" xmlns="http://www.w3.org/2000/svg">
<path d="M9 12.3369C9.42945 12.911 9.97736 13.3861 10.6066 13.7298C11.2357 14.0736 11.9315 14.278 12.6467 14.3292C13.3618 14.3804 14.0796 14.2772 14.7513 14.0267C15.4231 13.7761 16.0331 13.3839 16.54 12.8769L19.54 9.87688C20.4508 8.93387 20.9548 7.67086 20.9434 6.35987C20.932 5.04889 20.4061 3.79483 19.4791 2.86779C18.5521 1.94075 17.298 1.4149 15.987 1.40351C14.676 1.39212 13.413 1.89609 12.47 2.80688L10.75 4.51688" stroke="#B9B9B9" stroke-width="2" stroke-linecap="round" stroke-linejoin="round"/>
<path d="M13.0002 10.3371C12.5707 9.76301 12.0228 9.28796 11.3936 8.9442C10.7645 8.60044 10.0687 8.39602 9.35355 8.34481C8.63841 8.29359 7.92061 8.39677 7.24885 8.64736C6.5771 8.89794 5.96709 9.29007 5.4602 9.79714L2.4602 12.7971C1.54941 13.7402 1.04544 15.0032 1.05683 16.3141C1.06822 17.6251 1.59407 18.8792 2.52111 19.8062C3.44815 20.7333 4.70221 21.2591 6.01319 21.2705C7.32418 21.2819 8.58719 20.7779 9.5302 19.8671L11.2402 18.1571" stroke="#B9B9B9" stroke-width="2" stroke-linecap="round" stroke-linejoin="round"/>
</svg>
