<svg width="16" height="18" viewBox="0 0 16 18" fill="none" xmlns="http://www.w3.org/2000/svg">
<path d="M14.75 7.62988C14.75 12.8799 8 17.3799 8 17.3799C8 17.3799 1.25 12.8799 1.25 7.62988C1.25 5.83967 1.96116 4.12278 3.22703 2.85691C4.4929 1.59104 6.20979 0.879883 8 0.879883C9.79021 0.879883 11.5071 1.59104 12.773 2.85691C14.0388 4.12278 14.75 5.83967 14.75 7.62988Z" stroke="#C5C6C6" stroke-linecap="round" stroke-linejoin="round"/>
<path d="M8 9.37988C9.24264 9.37988 10.25 8.37252 10.25 7.12988C10.25 5.88724 9.24264 4.87988 8 4.87988C6.75736 4.87988 5.75 5.88724 5.75 7.12988C5.75 8.37252 6.75736 9.37988 8 9.37988Z" stroke="#C5C6C6" stroke-linecap="round" stroke-linejoin="round"/>
</svg>
