<svg width="16" height="15" viewBox="0 0 16 15" fill="none" xmlns="http://www.w3.org/2000/svg">
<path d="M15.5001 11.1901V13.4401C15.5009 13.6489 15.4581 13.8557 15.3745 14.0471C15.2908 14.2385 15.168 14.4103 15.0141 14.5515C14.8602 14.6927 14.6785 14.8002 14.4806 14.8671C14.2828 14.934 14.0731 14.9589 13.8651 14.9401C11.5572 14.6893 9.34032 13.9007 7.39257 12.6376C5.58044 11.4861 4.04407 9.9497 2.89257 8.13757C1.62506 6.18098 0.836254 3.95332 0.590072 1.63507C0.57133 1.42767 0.595978 1.21864 0.662447 1.02129C0.728916 0.823939 0.83575 0.64259 0.976146 0.488789C1.11654 0.334987 1.28743 0.212105 1.47792 0.127964C1.6684 0.0438236 1.87433 0.000268824 2.08257 7.27143e-05H4.33257C4.69655 -0.00350962 5.04942 0.125382 5.32539 0.362722C5.60137 0.600063 5.78163 0.929658 5.83257 1.29007C5.92754 2.01012 6.10366 2.71712 6.35757 3.39757C6.45848 3.66602 6.48032 3.95776 6.4205 4.23823C6.36069 4.51871 6.22172 4.77616 6.02007 4.98007L5.06757 5.93257C6.13524 7.81023 7.68991 9.36491 9.56757 10.4326L10.5201 9.48007C10.724 9.27843 10.9814 9.13946 11.2619 9.07964C11.5424 9.01983 11.8341 9.04167 12.1026 9.14257C12.783 9.39649 13.49 9.57261 14.2101 9.66757C14.5744 9.71897 14.9071 9.90248 15.145 10.1832C15.3828 10.4639 15.5092 10.8223 15.5001 11.1901Z" fill="#F66201"/>
</svg>
