<svg width="16" height="17" viewBox="0 0 16 17" fill="none" xmlns="http://www.w3.org/2000/svg">
<path d="M15.502 11.8109V14.0609C15.5029 14.2698 15.4601 14.4765 15.3764 14.6679C15.2927 14.8593 15.17 15.0311 15.0161 15.1723C14.8622 15.3135 14.6805 15.421 14.4826 15.488C14.2847 15.5549 14.0751 15.5797 13.867 15.5609C11.5592 15.3102 9.34227 14.5215 7.39452 13.2584C5.5824 12.1069 4.04603 10.5706 2.89453 8.75842C1.62701 6.80183 0.838207 4.57417 0.592025 2.25592C0.573283 2.04852 0.597931 1.83949 0.6644 1.64214C0.730869 1.44479 0.837703 1.26344 0.9781 1.10964C1.1185 0.955837 1.28938 0.832954 1.47987 0.748814C1.67036 0.664673 1.87628 0.621118 2.08453 0.620922H4.33453C4.6985 0.61734 5.05137 0.746231 5.32735 0.983572C5.60332 1.22091 5.78358 1.55051 5.83452 1.91092C5.92949 2.63097 6.10561 3.33797 6.35953 4.01842C6.46043 4.28687 6.48227 4.57861 6.42246 4.85908C6.36264 5.13956 6.22367 5.39701 6.02202 5.60092L5.06953 6.55342C6.13719 8.43108 7.69187 9.98576 9.56953 11.0534L10.522 10.1009C10.7259 9.89928 10.9834 9.76031 11.2639 9.70049C11.5443 9.64068 11.8361 9.66251 12.1045 9.76342C12.785 10.0173 13.492 10.1935 14.212 10.2884C14.5763 10.3398 14.9091 10.5233 15.1469 10.804C15.3848 11.0848 15.5112 11.4431 15.502 11.8109Z" stroke="#C5C6C6" stroke-linecap="round" stroke-linejoin="round"/>
</svg>
