<svg width="26" height="54" viewBox="0 0 26 54" fill="none" xmlns="http://www.w3.org/2000/svg">
<g clip-path="url(#clip0_588_799)">
<path d="M19.6402 11.3498C20.0002 10.3398 20.1702 9.34976 20.0702 8.32976C19.7302 4.85976 17.3902 2.35976 13.9502 1.76976C10.9102 1.23976 7.73023 2.95976 6.39023 5.83976C6.34023 5.94976 6.29023 6.06976 6.24023 6.17976C5.99023 6.66976 5.55023 6.83976 5.09023 6.61976C4.65023 6.40976 4.49023 5.97976 4.69023 5.48976C5.48023 3.58976 6.77023 2.11976 8.57023 1.12976C13.9802 -1.84024 20.5502 1.30976 21.6302 7.37976C21.9202 9.00976 21.7502 10.6198 21.1102 12.1498C20.9802 12.4498 21.0602 12.5798 21.2802 12.7598C22.6402 13.8998 23.9802 15.0498 25.3402 16.1898C25.6402 16.4398 25.7802 16.7298 25.7802 17.1298C25.7702 29.0798 25.7802 41.0298 25.7802 52.9798C25.7802 53.5998 25.4602 53.9398 24.8402 53.9398C16.8702 53.9398 8.91023 53.9398 0.940234 53.9398C0.290234 53.9398 0.000234375 53.5998 0.000234375 52.8698C0.000234375 43.1698 0.000234375 33.4598 0.000234375 23.7598C0.000234375 21.5598 0.0102344 19.3598 -0.00976562 17.1698C-0.00976562 16.7398 0.140234 16.4398 0.450234 16.1698C4.29023 12.8598 8.12023 9.53976 11.9502 6.21976C12.5902 5.65976 12.8902 5.64976 13.5402 6.19976C15.4302 7.79976 17.3102 9.39976 19.2002 10.9998C19.3402 11.0998 19.4702 11.2098 19.6402 11.3498ZM1.68023 52.2298C9.17023 52.2298 16.6102 52.2298 24.0902 52.2298C24.0902 52.0198 24.0902 51.8398 24.0902 51.6598C24.0902 40.3998 24.0902 29.1298 24.0902 17.8698C24.0902 17.7798 24.1102 17.6898 24.0902 17.6098C24.0402 17.4698 24.0102 17.2898 23.9002 17.1998C22.6902 16.1598 21.4702 15.1298 20.2502 14.0898C20.2202 14.0598 20.1702 14.0498 20.1202 14.0198C19.4502 14.9398 18.6702 15.7198 17.7102 16.3098C17.4002 16.4998 17.3102 16.6998 17.3102 17.0498C17.3202 19.7498 14.9002 21.8198 12.2402 21.4098C10.2202 21.0998 8.66023 19.4498 8.49023 17.4498C8.31023 15.3898 9.49023 13.5398 11.4302 12.8598C13.3502 12.1798 15.4702 12.8898 16.6002 14.5898C16.6702 14.6898 16.7402 14.7898 16.8102 14.8798C17.6202 14.3898 18.5302 13.4798 18.8302 12.8598C16.8302 11.1598 14.8202 9.45976 12.8102 7.74976C12.7302 7.80976 12.6702 7.84976 12.6102 7.88976C9.07023 10.9498 5.53023 14.0198 1.98023 17.0798C1.76023 17.2698 1.69023 17.4698 1.69023 17.7498C1.70023 29.0798 1.69023 40.3998 1.69023 51.7298C1.68023 51.8998 1.68023 52.0398 1.68023 52.2298ZM15.5802 17.3798C14.9302 17.4898 14.3002 17.6198 13.6602 17.7098C13.2102 17.7698 12.9002 17.5798 12.7502 17.2098C12.5202 16.6398 12.8602 16.1298 13.5002 16.0298C14.0802 15.9398 14.6502 15.8198 15.2602 15.7098C14.5402 14.4598 13.1202 13.9798 11.8702 14.4798C10.6102 14.9898 9.90024 16.3698 10.2202 17.6798C10.5402 19.0098 11.8502 19.9198 13.2002 19.7698C14.4702 19.6198 15.5402 18.5498 15.5802 17.3798Z" fill="#F66201"/>
<path d="M7.93984 36.8498C7.94984 36.6898 7.95984 36.5698 7.95984 36.4398C7.95984 33.6198 7.95984 30.7998 7.95984 27.9798C7.95984 27.3798 8.28984 27.0298 8.86984 27.0298C10.5098 27.0298 12.1398 27.0298 13.7798 27.0398C16.8498 27.0598 19.3198 29.4698 19.4698 32.5998C19.6098 35.5298 17.2898 38.2298 14.3098 38.4698C12.9298 38.5798 11.5398 38.4998 10.1498 38.5098C9.99984 38.5098 9.85984 38.5098 9.68984 38.5098C9.68984 39.0398 9.68984 39.5398 9.68984 40.0998C9.82984 40.0998 9.96984 40.0998 10.1098 40.0998C11.8198 40.0998 13.5298 40.0998 15.2398 40.0998C15.7998 40.0998 16.1198 40.3498 16.1998 40.7998C16.2898 41.3798 15.9098 41.7898 15.2798 41.7898C13.7198 41.7998 12.1598 41.7898 10.5998 41.7898C10.2998 41.7898 10.0098 41.7898 9.66984 41.7898C9.66984 42.0798 9.66984 42.3198 9.66984 42.5698C9.66984 43.6298 9.67984 44.6898 9.66984 45.7498C9.66984 46.2998 9.41984 46.6098 8.98984 46.6798C8.38984 46.7698 7.98984 46.4198 7.97984 45.7798C7.96984 44.6098 7.97984 43.4298 7.97984 42.2598C7.97984 42.1198 7.97984 41.9898 7.97984 41.7898C7.72984 41.7898 7.49984 41.7898 7.26984 41.7898C6.68984 41.7798 6.33984 41.4498 6.33984 40.9398C6.33984 40.4298 6.68984 40.1098 7.27984 40.0898C7.49984 40.0798 7.71984 40.0898 7.96984 40.0898C7.96984 39.5498 7.96984 39.0398 7.96984 38.4998C7.68984 38.4998 7.42984 38.5098 7.16984 38.4998C6.67984 38.4798 6.34984 38.1398 6.33984 37.6698C6.33984 37.1898 6.66984 36.8598 7.15984 36.8398C7.39984 36.8398 7.65984 36.8498 7.93984 36.8498ZM9.68984 28.7598C9.68984 31.4298 9.68984 34.1198 9.68984 36.8398C9.95984 36.8398 10.1898 36.8398 10.4298 36.8398C11.6898 36.8298 12.9598 36.8698 14.2098 36.7798C16.1898 36.6298 17.7498 34.8598 17.7798 32.8598C17.7998 30.7598 16.2998 28.9398 14.2698 28.7798C12.7698 28.6598 11.2498 28.7398 9.73984 28.7198C9.72984 28.7298 9.71984 28.7398 9.68984 28.7598Z" fill="#F66201"/>
</g>
<defs>
<clipPath id="clip0_588_799">
<rect width="25.79" height="53.95" fill="white"/>
</clipPath>
</defs>
</svg>
