<svg width="16" height="17" viewBox="0 0 16 17" fill="none" xmlns="http://www.w3.org/2000/svg">
<path d="M0.000163265 15.9702C0.000163265 15.9322 0.000163265 15.894 0.000163265 15.8559C0.0736327 15.6208 0.144 15.3845 0.221388 15.1506C0.567673 14.1034 0.915755 13.0568 1.26449 12.0105C1.28082 11.9615 1.28522 11.9207 1.25927 11.8723C1.20147 11.7646 1.15151 11.6529 1.09665 11.5435C0.389388 10.1327 0.142694 8.64002 0.309714 7.0761C0.39298 6.29725 0.600816 5.54958 0.922939 4.8362C1.77633 2.94654 3.15918 1.5864 5.05437 0.753663C5.94645 0.361787 6.88522 0.146091 7.86171 0.131396C8.60539 0.120293 9.34514 0.167481 10.0687 0.367012C12.3189 0.987483 14.0242 2.29766 15.1144 4.37346C15.6126 5.3218 15.9138 6.3335 15.9873 7.40757C15.9889 7.43124 15.9956 7.45459 16 7.4781V8.34366C15.9956 8.37534 15.9897 8.40701 15.9868 8.43902C15.9644 8.68802 15.9567 8.93931 15.9185 9.18587C15.6795 10.7282 15.039 12.0833 14.0002 13.2482C12.0524 15.4319 9.08914 16.3487 6.24882 15.6505C5.68735 15.5126 5.15004 15.3101 4.62596 15.0683C4.57959 15.0469 4.51461 15.0431 4.46482 15.056C3.72359 15.248 2.984 15.4466 2.24278 15.6386C1.62237 15.7993 0.999837 15.951 0.379592 16.1121C0.213224 16.1554 0.0860408 16.1268 0 15.9706L0.000163265 15.9702ZM10.6341 12.9361C11.0297 12.9306 11.2483 12.8875 11.5687 12.7459C12.2346 12.4518 12.7327 11.9551 13.1804 11.4001C13.2934 11.2602 13.3298 11.0894 13.3363 10.9109C13.3478 10.5966 13.2118 10.344 13.0131 10.1156C12.7257 9.78528 12.4015 9.49545 12.0389 9.25167C11.8072 9.0959 11.5737 8.93491 11.3215 8.8193C10.9649 8.65586 10.6235 8.68509 10.3517 9.01704C10.2536 9.13689 10.154 9.25706 10.0438 9.36548C9.93404 9.47357 9.81845 9.57971 9.69077 9.66445C9.46645 9.81336 9.16669 9.79491 8.96882 9.60338C8.46286 9.11321 7.94955 8.63022 7.44996 8.13368C7.12604 7.81169 6.81616 7.475 6.50955 7.13635C6.36669 6.97846 6.33437 6.78612 6.41175 6.58022C6.48343 6.38983 6.59673 6.23112 6.75167 6.09968C6.88033 5.9906 7.00473 5.87663 7.13273 5.76675C7.33355 5.59448 7.42971 5.37601 7.3938 5.11476C7.37567 4.98267 7.3409 4.84469 7.2782 4.7286C6.96196 4.14356 6.57437 3.61012 6.07478 3.16583C5.968 3.0708 5.84784 2.98752 5.72376 2.91601C5.3809 2.7186 4.91641 2.77542 4.64131 3.02165C4.34269 3.28894 4.05404 3.56538 3.80343 3.87823C3.55641 4.18667 3.35886 4.52662 3.26694 4.91294C3.12865 5.49423 3.19249 6.06392 3.42057 6.61451C3.69306 7.27188 4.0978 7.84582 4.59135 8.34938C5.57584 9.35405 6.58041 10.3388 7.5729 11.3355C8.02433 11.7887 8.50955 12.1965 9.07233 12.5057C9.55853 12.773 10.072 12.943 10.634 12.936L10.6341 12.9361Z" fill="#C5C6C6"/>
</svg>
